<?xml version="1.0" encoding="UTF-8"?>
<svg viewBox="0 0 100 150" xmlns="http://www.w3.org/2000/svg">
    <!-- Epaulette background -->
    <path d="M10,20 L50,0 L90,20 L90,150 L10,150 Z" fill="#00152b" stroke="#000" stroke-width="2"/>
    
    <path d="M20,80 L50,105 L80,80 L80,90 L50,115 L20,90 Z" fill="#6ba4d9" />
    <path d="M20,60 L50,85 L80,60 L80,70 L50,95 L20,70 Z" fill="#6ba4d9" />
    <path d="M20,40 L50,65 L80,40 L80,50 L50,75 L20,50 Z" fill="#6ba4d9" />
    <!-- Stylized Crown -->
    <path d="M35,35 L40,15 L50,25 L60,15 L65,35 Z" fill="#cda434" />
    <circle cx="40" cy="15" r="2" fill="#881337" />
    <circle cx="50" cy="25" r="2" fill="#881337" />
    <circle cx="60" cy="15" r="2" fill="#881337" />
    <rect x="35" y="35" width="30" height="4" fill="#cda434" />
    <text x="50" y="135" fill="#cda434" font-family="sans-serif" font-size="14" text-anchor="middle" font-weight="bold">RAFAC</text>

</svg>